<svg xmlns="http://www.w3.org/2000/svg" id="Camada_1" data-name="Camada 1" viewBox="0 0 595.28 221.78"><defs><style>      .cls-1 {        fill: #015127;      }      .cls-1, .cls-2, .cls-3, .cls-4, .cls-5, .cls-6 {        stroke-width: 0px;      }      .cls-2 {        fill: #d12c2c;      }      .cls-3 {        fill: #0c2027;      }      .cls-4 {        fill: #ce781a;      }      .cls-5 {        fill: #f9bc30;      }      .cls-6 {        fill: #007335;      }    </style></defs><g><path class="cls-3" d="M220.12,158.98l-8.42-19.44c-.1-.2-.26-.31-.46-.31h-3.21c-.26,0-.38.13-.38.38v19.06c0,.36-.1.64-.31.84s-.49.31-.84.31h-12.09c-.36,0-.64-.1-.84-.31-.21-.2-.31-.48-.31-.84v-51.28c0-.36.1-.64.31-.84.2-.2.48-.31.84-.31h23.19c3.47,0,6.52.72,9.14,2.14,2.63,1.43,4.67,3.43,6.12,6.01,1.45,2.58,2.18,5.55,2.18,8.92s-.83,6.31-2.49,8.84c-1.66,2.53-3.94,4.38-6.85,5.55-.26.1-.33.28-.23.54l9.72,20.2c.1.31.15.49.15.54,0,.26-.1.46-.31.61-.2.15-.46.23-.77.23h-12.86c-.66,0-1.1-.28-1.3-.84ZM207.64,118.95v8.96c0,.26.13.38.38.38h7.19c1.63,0,2.96-.45,3.98-1.34,1.02-.89,1.53-2.05,1.53-3.48s-.51-2.67-1.53-3.56c-1.02-.89-2.35-1.34-3.98-1.34h-7.19c-.26,0-.38.13-.38.38Z"></path><path class="cls-3" d="M327.5,120.48c.46.26.64.74.54,1.45l-1.84,11.79c-.05.41-.19.66-.42.77-.23.1-.55.1-.96,0-.92-.2-1.73-.31-2.45-.31-.77,0-1.48.08-2.14.23-1.33.26-2.46.8-3.41,1.65-.95.84-1.42,1.98-1.42,3.41v19.21c0,.36-.1.64-.3.84-.21.2-.49.31-.84.31h-12.09c-.36,0-.64-.1-.84-.31s-.3-.48-.3-.84v-37.5c0-.36.1-.64.3-.84.2-.2.49-.31.84-.31h12.09c.36,0,.64.1.84.31.2.2.3.49.3.84v1.84c0,.15.05.26.15.31.1.05.18.03.23-.08,1.94-2.5,4.39-1.89,7.5-1.89,1.73,0,3.19-1.52,4.21-.86Z"></path><path class="cls-3" d="M353.44,120.33c.2-.2.49-.31.84-.31h12.09c.36,0,.64.1.84.31.2.2.31.49.31.84v33.45c0,7.3-2.1,12.49-6.31,15.57-4.21,3.09-9.5,4.63-15.88,4.63-2.86,0-5.54-.23-8.03-.69-.66-.15-1-.59-1-1.3l.46-10.33c0-.87.46-1.18,1.38-.92,2.14.56,4.16.84,6.05.84,2.45,0,4.47-.51,6.05-1.53,1.58-1.02,2.53-2.57,2.83-4.67.05-.2.01-.33-.11-.38-.13-.05-.27,0-.42.15-1.74,1.63-4.24,2.45-7.5,2.45-8.17,0-13.37-3.32-15.61-9.95-.87-2.55-1.3-5.54-1.3-8.96,0-3.77.54-6.99,1.61-9.64,1.23-3.21,3.15-5.77,5.78-7.65,2.63-1.89,5.65-2.83,9.07-2.83s6.22,1.07,8.11,3.22c.1.1.2.14.31.11.1-.03.15-.11.15-.27v-1.3c0-.36.1-.64.3-.84ZM353.14,139.46c0-2.04-.28-3.7-.84-4.98-.87-1.84-2.32-2.76-4.36-2.76-1.79,0-3.14.89-4.06,2.68-.82,1.43-1.23,3.19-1.23,5.28s.33,3.7.99,4.98c.92,1.79,2.4,2.68,4.44,2.68s3.47-.87,4.29-2.6c.51-1.33.77-3.09.77-5.28Z"></path><path class="cls-3" d="M395.69,120.33c.2-.2.49-.31.84-.31h12.09c.36,0,.64.1.84.31.2.2.3.49.3.84v37.5c0,.36-.1.64-.3.84-.21.2-.49.31-.84.31h-12.09c-.36,0-.64-.1-.84-.31s-.3-.48-.3-.84v-2.53c0-.15-.05-.25-.15-.31-.1-.05-.2,0-.31.15-2.09,2.96-5.36,4.44-9.8,4.44-3.88,0-6.96-1.26-9.26-3.79-2.3-2.53-3.44-6.03-3.44-10.52v-24.95c0-.36.1-.64.3-.84.2-.2.49-.31.84-.31h12.09c.36,0,.64.1.84.31.2.2.31.49.31.84v21.81c0,1.53.4,2.77,1.19,3.71.79.94,1.82,1.42,3.1,1.42,1.12,0,2.05-.34,2.79-1.03.74-.69,1.21-1.62,1.41-2.79.05-.1.08-.26.08-.46v-22.66c0-.36.1-.64.3-.84Z"></path><path class="cls-3" d="M453.25,140.53c0,.82-.03,1.45-.08,1.91,0,.72-.38,1.07-1.15,1.07h-22.96c-.2,0-.31.1-.31.31,0,.46.2.99.61,1.61.51.87,1.41,1.6,2.72,2.18,1.3.59,2.77.88,4.4.88,1.38,0,2.65-.2,3.83-.61,1.17-.41,2.17-1,2.99-1.76.25-.2.51-.31.77-.31.36,0,.64.15.84.46l5.82,7.42c.2.26.31.54.31.84s-.13.56-.38.77c-1.79,1.74-4.01,3.02-6.66,3.86-2.65.84-5.51,1.26-8.57,1.26-4.74,0-8.8-.99-12.17-2.98-3.37-1.99-5.82-4.82-7.35-8.5-1.12-2.65-1.68-5.51-1.68-8.57,0-3.21.46-6.07,1.38-8.57,1.38-3.88,3.65-6.91,6.81-9.11,3.16-2.19,6.89-3.29,11.17-3.29,3.26,0,6.29.77,9.07,2.3,2.78,1.53,5.08,3.63,6.89,6.31,1.81,2.68,2.97,5.7,3.48,9.07.15,1.12.23,2.27.23,3.44ZM429.14,134.79l-.31.84c-.05.15-.03.27.08.34.1.08.2.11.31.11h8.72c.2,0,.31-.1.31-.31s-.08-.54-.23-.99c-.26-.97-.78-1.72-1.57-2.26s-1.77-.8-2.95-.8c-2.09,0-3.55,1.02-4.36,3.06Z"></path><path class="cls-5" d="M297.04,140.53c0,.82-.03,1.45-.08,1.91,0,.72-.38,1.07-1.15,1.07h-22.96c-.2,0-.3.1-.3.31,0,.46.2.99.61,1.61.51.87,1.42,1.6,2.72,2.18,1.3.59,2.77.88,4.4.88,1.38,0,2.65-.2,3.83-.61,1.17-.41,2.17-1,2.99-1.76.25-.2,28.32-23.11,28.32-23.11,0,0,3.7-3.45,10.5-3.45.72,0,2.72.63,2.36,2.69-.46,2.62-1.22,8.18-1.77,10.9-.32,1.55-.84,1.62-1.83,1.62-5.41,0-9.29,4.07-9.29,4.07.2.26-22.71,19.05-27.61,20.34-2.69.71-5.51,1.26-8.57,1.26-4.74,0-8.8-.99-12.17-2.98-3.37-1.99-5.81-4.82-7.35-8.5-1.12-2.65-1.68-5.51-1.68-8.57,0-3.21.46-6.07,1.38-8.57,1.38-3.88,3.65-6.91,6.81-9.11,3.16-2.19,6.89-3.29,11.17-3.29,3.26,0,6.29.77,9.07,2.3,2.78,1.53,5.07,3.63,6.89,6.31,1.81,2.68,2.97,5.7,3.48,9.07.15,1.12.23,2.27.23,3.44ZM272.93,134.79l-.31.84c-.05.15-.03.27.08.34.1.08.2.11.3.11h8.73c.2,0,.3-.1.3-.31s-.08-.54-.23-.99c-.26-.97-.78-1.72-1.57-2.26-.79-.54-1.77-.8-2.95-.8-2.09,0-3.55,1.02-4.36,3.06Z"></path><path class="cls-3" d="M277.52,140.53c0,.82-.03,1.45-.08,1.91,0,.72-.38,1.07-1.15,1.07h-22.96c-.2,0-.3.1-.3.31,0,.46.2.99.61,1.61.51.87,1.42,1.6,2.72,2.18,1.3.59,2.77.88,4.4.88,1.38,0,2.65-.2,3.83-.61,1.17-.41,2.17-1,2.99-1.76.25-.2.51-.31.77-.31.36,0,.64.15.84.46l5.82,7.42c.2.26.3.54.3.84s-.13.56-.38.77c-1.79,1.74-4.01,3.02-6.66,3.86-2.66.84-5.51,1.26-8.57,1.26-4.74,0-8.8-.99-12.17-2.98-3.37-1.99-5.81-4.82-7.35-8.5-1.12-2.65-1.68-5.51-1.68-8.57,0-3.21.46-6.07,1.38-8.57,1.38-3.88,3.65-6.91,6.81-9.11,3.16-2.19,6.89-3.29,11.17-3.29,3.26,0,6.29.77,9.07,2.3,2.78,1.53,5.07,3.63,6.89,6.31,1.81,2.68,2.97,5.7,3.48,9.07.15,1.12.23,2.27.23,3.44ZM253.41,134.79l-.31.84c-.05.15-.03.27.08.34.1.08.2.11.3.11h8.73c.2,0,.3-.1.3-.31s-.08-.54-.23-.99c-.26-.97-.78-1.72-1.57-2.26-.79-.54-1.77-.8-2.95-.8-2.09,0-3.55,1.02-4.36,3.06Z"></path><g><path class="cls-6" d="M486.07,158.55l-8.42-19.44c-.1-.2-.26-.31-.46-.31h-3.21c-.25,0-.38.13-.38.38v19.06c0,.36-.1.64-.3.84-.21.2-.49.31-.84.31h-12.09c-.36,0-.64-.1-.84-.31s-.3-.48-.3-.84v-51.28c0-.36.1-.64.3-.84s.49-.31.84-.31h23.19c3.47,0,6.52.72,9.15,2.14,2.63,1.43,4.67,3.43,6.12,6.01,1.45,2.58,2.18,5.55,2.18,8.92s-.83,6.31-2.49,8.84c-1.66,2.53-3.94,4.38-6.85,5.55-.25.1-.33.28-.23.54l9.72,20.2c.1.31.15.49.15.54,0,.26-.1.46-.31.61-.2.15-.46.23-.77.23h-12.86c-.66,0-1.1-.28-1.3-.84ZM473.59,118.52v8.96c0,.26.13.38.38.38h7.2c1.63,0,2.96-.45,3.98-1.34,1.02-.89,1.53-2.05,1.53-3.48s-.51-2.67-1.53-3.56c-1.02-.89-2.35-1.34-3.98-1.34h-7.2c-.25,0-.38.13-.38.38Z"></path><path class="cls-6" d="M515.3,157.9c-3.21-1.4-5.7-3.41-7.46-6.01-1.76-2.6-2.64-5.61-2.64-9.03v-1.07c0-.36.1-.64.31-.84s.48-.31.84-.31h11.86c.36,0,.64.1.84.31s.3.49.3.84v.46c0,1.43.75,2.69,2.26,3.79,1.51,1.1,3.51,1.65,6.01,1.65,1.89,0,3.24-.39,4.06-1.19.82-.79,1.22-1.67,1.22-2.64,0-1.12-.51-1.96-1.53-2.53-1.02-.56-2.88-1.25-5.59-2.07l-2.22-.61c-5.05-1.53-9.29-3.57-12.71-6.12-3.42-2.55-5.13-6.25-5.13-11.1,0-3.21.87-6.06,2.6-8.53,1.73-2.47,4.12-4.37,7.16-5.7,3.04-1.33,6.44-1.99,10.22-1.99,3.98,0,7.59.74,10.83,2.22,3.24,1.48,5.79,3.57,7.65,6.28,1.86,2.71,2.79,5.79,2.79,9.26v.69c0,.36-.1.64-.3.84-.21.2-.49.31-.84.31h-11.86c-.36,0-.64-.1-.84-.31-.21-.2-.31-.48-.31-.84v-.08c0-1.53-.69-2.92-2.07-4.17-1.38-1.25-3.24-1.88-5.59-1.88-1.63,0-2.92.33-3.86.99-.95.66-1.42,1.58-1.42,2.76,0,.92.34,1.7,1.03,2.33.69.64,1.75,1.25,3.18,1.84,1.43.59,3.62,1.34,6.58,2.26.41.15,2.21.7,5.39,1.65,3.19.94,5.85,2.65,8,5.13,2.14,2.48,3.21,5.47,3.21,8.99s-.87,6.37-2.6,8.84c-1.73,2.48-4.16,4.38-7.27,5.7-3.11,1.33-6.73,1.99-10.87,1.99s-8.04-.7-11.25-2.1Z"></path></g></g><g><path class="cls-1" d="M104.46,41.56l-12.38,12.38-8.73-8.73c-1.35-1.35-.39-3.65,1.51-3.65h19.6Z"></path><path class="cls-4" d="M88.63,180.22l12.38-12.38,8.73,8.73c1.35,1.35.39,3.65-1.51,3.65h-19.6Z"></path><rect class="cls-6" x="34.16" y="69.17" width="94.63" height="29.78" rx="3.59" ry="3.59" transform="translate(-35.57 82.23) rotate(-45)"></rect><rect class="cls-2" x="55.3" y="90.19" width="94.54" height="29.78" rx="3.59" ry="3.59" transform="translate(-44.26 103.3) rotate(-45)"></rect><rect class="cls-5" x="59.28" y="110.63" width="129.14" height="29.78" rx="3.59" ry="3.59" transform="translate(-52.48 124.34) rotate(-45)"></rect></g></svg>